<?xml version="1.0" encoding="UTF-8"?><svg id="ADOIT" xmlns="http://www.w3.org/2000/svg" viewBox="0 0 67.7797 60"><defs><style>.cls-1{fill:#fff;}.cls-2{fill:#00b05e;}</style></defs><rect class="cls-1" x="13.3324" y="13.3174" width="39.2544" height="34.0996"/><path class="cls-2" d="m67.0932,27.4576L52.6525,2.5424C51.7373,1.0169,50.1102,0,48.2797,0h-28.7797C17.6695,0,16.0424,1.0169,15.1271,2.5424L.6865,27.4576c-.9153,1.5255-.9153,3.5593,0,5.0848l14.339,24.9152c.9152,1.5255,2.5424,2.5424,4.3729,2.5424h28.7797c1.8305,0,3.4576-1.017,4.3729-2.5424l14.5424-24.9152c.9153-1.5255.9153-3.5593,0-5.0848Zm-22.6135,12.2542c0,.5085-.2034.9153-.5085,1.2203-.3051.4068-.7119.6102-1.1187.6102h-15.7627c-.5085,0-.9153-.2034-1.2203-.5084s-.5085-.7119-.5085-1.2204v-1.8305h-1.322c-.6102,0-1.1187-.2034-1.6271-.6102-.4068-.4067-.6102-.9152-.6102-1.5254v-.9153c0-.6102.2034-1.1186.6102-1.6271.4068-.4068.9153-.7119,1.5255-.7119h1.322v-5.2881h-1.322c-.6102,0-1.1187-.2034-1.6271-.7119-.4068-.4067-.6102-1.0169-.6102-1.6271v-.9153c0-.6102.2034-1.1187.6102-1.6271.4067-.4067.9152-.6102,1.6271-.6102h1.322v-1.6271c0-.5085.2034-.9153.6102-1.2203.3051-.3051.8135-.5085,1.2203-.5085h15.661c.5085,0,.9152.2034,1.2203.5085.3051.4067.5085.8135.5085,1.2203v19.5254Z"/><path class="cls-2" d="m28.0051,34.4237h-3.9661c-.1017,0-.2034,0-.3051.1017s-.1017.2034-.1017.3051v.9153c0,.1017,0,.2034.1017.3051s.2034.1017.3051.1017h3.9661c.1017,0,.2034,0,.3051-.1017s.1017-.2034.1017-.3051v-.9153c0-.1017,0-.2034-.1017-.3051s-.2034-.1017-.3051-.1017Z"/><path class="cls-2" d="m28.0051,23.7457h-3.9661c-.1017,0-.2034,0-.3051.1017s-.1017.2034-.1017.3051v.9153c0,.1017,0,.2034.1017.3051.1017.1017.2034.1017.3051.1017h3.9661c.1017,0,.2034,0,.3051-.1017.1017-.1017.1017-.2034.1017-.3051v-.9153c0-.1017,0-.2034-.1017-.3051s-.2034-.1017-.3051-.1017Z"/></svg>